<svg width="1081" height="3937" viewBox="0 0 1081 3937" fill="none" xmlns="http://www.w3.org/2000/svg">
<path d="M67 1V1C53.6746 1 46.631 16.7694 55.5239 26.6934L57.754 29.182C63.1303 35.1817 63.5251 44.1419 58.6972 50.5911L40.6161 74.7442C19.8675 102.461 30.3767 142.278 62.1004 156.146L71.6344 160.313C79.4603 163.734 87.9089 165.5 96.4497 165.5H638.372C699.998 165.5 760.499 182.007 813.585 213.304L1067.5 363" stroke="#D09877" stroke-width="2"/>
<path d="M1046.5 457L670.864 596.798C587.56 627.8 521.318 692.684 488.598 775.327V775.327C442.935 890.656 469.513 1022.06 556.405 1110.58L785.902 1344.38C940.393 1501.76 916.623 1760.19 736.016 1886.75V1886.75C662.396 1938.34 610.952 2015.81 591.965 2103.68L576.25 2176.4C545.34 2319.44 579.14 2468.84 668.614 2584.64L794.325 2747.35C926.08 2917.88 864.101 3166.71 667.75 3255.51V3255.51C520.58 3322.07 442.193 3484.47 481.628 3641.1L556 3936.5" stroke="#D09877" stroke-width="3"/>
</svg>
