<svg width="397" height="476" viewBox="0 0 397 476" fill="none" xmlns="http://www.w3.org/2000/svg">
<path d="M208.948 0.192566C208.848 0.28894 206.302 0.626251 203.256 0.963562C181.837 3.13202 163.015 10.1192 144.841 22.6479C137.352 27.804 136.753 28.2859 129.064 35.6586C118.829 45.4888 111.889 54.5481 101.704 71.4619C98.3592 77.0034 95.6631 81.5812 95.6631 81.6776C95.6631 81.774 94.5148 83.7015 93.1668 86.0145C91.7688 88.3275 90.6704 90.255 90.6704 90.3514C90.6704 90.4478 89.8217 91.9897 88.7732 93.8209C86.9259 96.9531 84.6292 101.145 77.6894 113.963C67.3544 133.094 54.5731 158.537 46.2352 176.607C45.6361 177.908 44.8373 179.643 44.4379 180.462C36.3497 198.002 30.7578 214.531 31.5567 218.675L31.9062 220.361L26.9634 220.024C21.6711 219.687 16.4287 218.867 7.34199 217.036C4.14666 216.41 1.25088 215.88 0.901392 215.88C-0.496568 215.88 -0.246933 217.374 1.50052 219.301C4.89556 223.204 10.6871 226.626 17.0279 228.553C23.4185 230.529 24.6168 230.818 27.5625 231.107C29.3099 231.3 30.9575 231.685 31.1572 231.974C31.4069 232.264 31.9062 234.769 32.2057 237.564C33.0545 244.214 34.4524 251.105 36.3497 257.321C37.1984 260.116 38.0971 263.152 38.3468 264.067C38.5964 264.983 39.0457 265.947 39.2954 266.188C39.545 266.477 39.7447 266.959 39.7447 267.344C39.7447 267.681 40.6434 270.091 41.7917 272.645C42.8901 275.199 44.1882 278.186 44.6376 279.246C45.6361 281.559 55.8712 301.22 58.068 305.027C58.9168 306.472 60.5144 309.412 61.7127 311.532C62.861 313.652 64.209 315.917 64.7083 316.592C65.1576 317.266 65.7068 318.134 65.8566 318.519C66.0563 318.905 66.8552 320.302 67.654 321.651C68.4528 322.952 69.5512 324.832 70.0006 325.747C70.4998 326.663 72.447 329.891 74.2943 332.879C76.1416 335.867 77.6894 338.517 77.6894 338.758C77.6894 339.047 77.8391 339.24 78.0888 339.24C78.2885 339.24 78.9375 340.252 79.5866 341.505C80.1857 342.806 80.9846 344.251 81.334 344.781C82.8818 347.191 84.2298 349.504 86.9259 354.419C91.2196 362.129 97.111 373.067 97.6103 374.176C97.8599 374.706 99.5075 378.079 101.305 381.645C105.099 389.403 106.947 393.74 108.195 398.125C109.793 403.666 111.19 412.918 111.49 419.954C111.79 427.519 111.54 429.495 107.196 451.517C104.55 464.768 102.903 475.032 103.252 475.418C103.402 475.514 104.45 473.49 105.649 470.936C106.797 468.334 108.395 464.865 109.193 463.178C109.992 461.491 110.641 460.046 110.641 459.949C110.641 459.853 111.24 458.504 111.939 456.962C112.638 455.42 113.537 453.492 113.887 452.721C114.236 451.902 114.985 450.264 115.584 449.011C116.133 447.758 116.633 446.505 116.633 446.216C116.633 445.927 116.832 445.349 117.082 444.867C117.981 443.18 119.578 437.639 120.577 432.868C121.326 429.35 121.625 426.17 121.625 421.255C121.625 402.462 116.333 384.873 104.201 363.478C101.255 358.322 94.6147 347.287 94.0155 346.516C93.716 346.179 93.2167 345.504 92.9171 345.022C92.318 343.914 87.4751 336.011 82.033 327.193C79.8362 323.627 77.1402 319.049 76.0418 317.074C74.9434 315.098 73.1959 312.014 72.0975 310.231C71.049 308.496 70.2003 306.906 70.2003 306.761C70.2003 306.569 69.701 305.653 69.052 304.641C68.4029 303.677 66.4058 300.16 64.6084 296.835C53.0253 275.632 47.1339 261.851 44.1882 249.37C42.99 244.118 41.592 233.42 41.9914 232.215C42.1912 231.637 43.1398 231.203 45.1369 230.818C64.1092 227.252 75.2429 222 89.6719 209.664C93.1169 206.772 94.6646 205.712 94.6646 206.387C94.6646 206.483 95.0141 211.398 95.4135 217.374C96.1125 227.541 97.111 234.528 98.8585 242.046C101.405 252.695 107.546 267.826 113.188 277.03C117.781 284.595 126.518 296.064 132.11 301.846C136.454 306.376 142.395 311.821 144.342 313.074C145.441 313.797 146.439 314.471 146.589 314.616C147.288 315.435 151.232 317.7 154.178 319.001C156.075 319.868 157.723 320.784 157.922 321.073C158.821 322.374 161.867 344.974 162.665 356.346C163.464 367.285 163.464 391.523 162.715 401.643C161.267 419.761 157.773 436.868 151.981 453.637C150.333 458.456 148.786 463.13 148.586 464.045L148.137 465.732L149.235 464.431C150.883 462.455 158.022 450.842 160.469 446.216C164.213 439.084 168.157 427.808 170.105 418.749C170.404 417.303 170.853 415.231 171.103 414.171C171.303 413.111 171.752 410.172 172.052 407.666C172.351 405.16 172.851 401.353 173.2 399.233C173.999 393.981 173.949 360.105 173.15 352.491C171.602 337.987 171.053 333.313 170.304 328.012C169.855 324.88 169.605 321.989 169.755 321.651C169.905 321.266 171.153 320.88 172.9 320.688C178.343 320.158 189.926 316.881 200.011 313.074C210.496 309.123 227.221 300.545 237.556 293.895C243.797 289.896 252.185 283.342 252.884 282.041C253.283 281.222 253.183 280.355 252.484 278.427C251.486 275.584 250.437 275.006 248.79 276.451C248.191 276.982 246.693 278.042 245.445 278.861C244.196 279.632 241.85 281.174 240.202 282.234C227.82 290.281 208.948 300.16 198.014 304.304C190.575 307.099 189.926 307.291 187.279 308.062C178.442 310.616 175.846 311.002 168.557 311.05C161.317 311.05 161.267 311.05 157.922 309.46C149.435 305.412 137.702 293.654 127.067 278.524C123.872 273.994 118.979 265.898 117.481 262.622C109.693 245.756 106.447 230.818 105.649 207.543C105.399 200.412 105.349 194.244 105.499 193.81C105.698 193.376 106.897 191.593 108.145 189.859C112.838 183.45 118.929 173.378 122.424 166.247C124.221 162.633 135.106 136.756 135.106 136.129C135.106 135.937 135.455 135.118 135.854 134.298C136.703 132.467 146.189 107.747 147.937 102.639C148.636 100.663 149.485 98.3505 149.834 97.5795C150.134 96.7603 150.883 94.9292 151.432 93.4836C154.228 86.3036 154.827 84.7616 156.424 80.9548C159.42 74.0158 159.57 73.6785 162.865 67.2214C167.758 57.6802 176.695 45.3924 180.889 42.5012C182.886 41.1519 189.127 40.4773 202.857 40.14C213.891 39.8509 232.713 40.5737 235.809 41.3929L237.157 41.7302L237.207 57.1502C237.207 69.8717 237.406 73.2448 238.105 76.6179C239.104 81.2439 240.801 87.4601 241.45 88.9057C241.7 89.4358 242.449 91.2188 243.148 92.8089C245.395 98.0614 248.041 101.82 252.634 106.301C260.123 113.53 265.815 116.035 279.645 118.348C292.975 120.565 297.569 121.866 298.567 123.793C299.466 125.432 300.464 129.19 302.062 136.611C306.506 157.91 308.103 183.064 305.856 197.135C303.959 209.182 301.613 214.723 295.821 220.939C289.83 227.397 288.232 229.372 288.981 229.372C289.38 229.372 289.98 229.083 290.279 228.794C290.629 228.457 292.476 227.3 294.323 226.24C304.309 220.602 307.504 217.663 310.699 211.157C313.046 206.339 314.094 203.255 314.793 199.014C315.143 197.038 315.642 194.533 315.942 193.473C316.641 190.822 316.591 163.885 315.842 159.404C314.993 153.959 312.746 137.527 312.197 132.323C311.997 130.54 313.346 131.07 316.84 134.25C325.628 142.249 331.669 152.802 335.264 166.439C338.409 178.149 339.308 198.05 337.261 210.676C335.663 220.891 333.616 229.806 330.62 239.877C329.222 244.407 328.973 246.045 329.322 246.768C330.471 248.792 331.769 247.443 335.413 240.359C340.256 230.962 345.049 212.458 346.797 196.605C347.446 190.919 347.196 177.812 346.347 171.547C345.349 163.837 341.904 152.417 338.758 146.393C333.366 135.985 325.727 126.155 320.136 122.444C318.188 121.143 313.046 118.686 309.202 117.144C306.406 116.083 295.721 113.24 289.031 111.795C271.257 108.036 264.117 104.422 257.227 95.7484C249.439 85.8699 246.094 73.2448 246.643 55.8491C246.793 50.934 247.242 45.0551 247.641 42.8385C248.34 38.8871 248.64 35.8031 248.49 34.0684C248.49 33.5865 247.741 32.9119 246.843 32.5746C243.897 31.4181 230.766 30.5989 214.989 30.5989C198.613 30.5989 197.764 30.4061 205.703 28.5268C208.698 27.8522 211.544 27.7076 223.626 27.7558C231.515 27.804 237.956 27.6595 237.956 27.4185C237.956 26.262 233.212 24.5273 224.475 22.5998C218.584 21.2987 205.553 20.8168 199.512 21.636C190.025 22.9853 181.188 27.1294 174.099 33.4901C163.015 43.4649 154.727 56.8129 144.841 80.5693C143.593 83.5569 142.345 86.4482 142.145 86.9782C141.646 88.0384 140.897 89.8695 135.255 104.085C133.208 109.241 131.012 114.831 130.313 116.469C129.664 118.156 128.565 120.854 127.916 122.492C127.267 124.179 125.869 127.6 124.871 130.106C118.829 145.285 111.34 162.825 110.092 164.849C109.293 166.198 108.644 167.355 108.644 167.5C108.644 168.752 97.8599 184.654 93.5662 189.762C80.4853 205.182 66.7553 214.531 51.0782 218.578C45.5363 220.024 43.7389 220.072 43.7389 218.771C43.7389 216.747 45.8358 208.748 47.2338 205.519C47.4834 204.989 49.0811 201.086 50.7786 196.846C52.4761 192.605 54.0239 188.895 54.2236 188.654C54.4233 188.365 54.7728 187.642 54.9725 186.967C55.322 185.859 56.9197 182.438 59.9652 176.125C61.5629 172.8 64.3089 167.066 65.9565 163.596C68.0035 159.163 86.7262 123.022 90.7204 115.65C95.7131 106.446 103.651 92.2307 106.397 87.4601C106.997 86.4 108.195 84.3279 108.994 82.8823C120.727 62.1135 130.962 48.9101 143.593 38.4052C159.27 25.3464 176.146 17.5401 197.515 13.4441C202.457 12.4804 204.804 12.3358 214.49 12.2876C226.922 12.2876 231.665 12.9622 240.452 15.9981C245.195 17.6364 258.725 23.8044 260.073 24.9609C260.523 25.3464 260.922 26.3584 260.922 27.1776C260.922 30.2616 262.62 31.2735 269.909 32.2854C278.796 33.5865 288.182 36.4778 295.921 40.2846C312.447 48.4283 326.876 60.8124 340.406 78.3527C362.174 106.687 377.302 148.321 380.298 188.172C381.147 199.303 380.597 218.048 379.249 227.204C376.453 245.756 370.961 260.405 361.625 273.898L357.681 279.632L358.23 283.776C358.53 286.041 358.929 289.51 359.079 291.438C359.279 293.365 359.628 295.052 359.878 295.196C360.527 295.582 362.773 293.173 368.016 286.523C378.201 273.464 384.592 260.791 388.286 246.238C390.533 237.323 391.332 232.794 392.73 221.903C394.178 210.338 393.479 185.763 391.282 170.584C389.884 161.042 387.437 149.574 385.191 142.153C384.642 140.418 383.992 138.153 383.693 137.093C382.545 133.286 377.502 119.023 376.503 116.854C376.154 116.035 374.706 112.71 373.258 109.385C368.365 98.0132 361.076 85.0989 354.336 75.6542C353.137 73.9194 351.64 71.8956 351.09 71.0764C348.045 66.8841 341.405 59.3186 336.062 54.018C319.237 37.3933 300.514 26.6475 279.645 21.6842C276.3 20.9132 273.104 20.2386 272.505 20.2386C271.956 20.2386 270.408 19.3712 269.11 18.2629C261.222 11.6612 248.989 5.73413 237.406 2.89108C231.515 1.44543 220.032 -0.000183105 214.24 -0.000183105C211.444 -0.000183105 209.048 0.0961914 208.948 0.192566Z" fill="#343434"/>
<path d="M226.672 130.588C210.096 134.154 198.663 146.105 197.065 161.428C195.917 172.271 199.611 182.294 207.55 189.763C209.697 191.786 228.619 204.315 244.546 214.194C246.643 215.543 248.49 216.844 248.64 217.133C248.74 217.422 248.241 221.325 247.442 225.807C246.643 230.481 246.194 234.24 246.443 234.673C246.643 235.059 248.79 240.504 251.186 246.72C253.583 252.936 255.979 259.008 256.429 260.213C257.926 263.923 265.316 283.054 270.009 295.149C272.455 301.509 274.652 306.906 274.902 307.099C275.101 307.34 276 306.232 276.949 304.69C281.842 296.353 286.635 291.053 296.27 283.391C298.018 281.993 298.867 280.982 298.717 280.5C298.567 280.066 297.169 276.596 295.621 272.741C294.074 268.886 292.077 263.779 291.128 261.417C286.734 249.756 277.448 225.614 276.899 224.506C276.599 223.831 273.404 221.277 269.859 218.771C265.515 215.736 263.418 214.001 263.418 213.374C263.418 212.266 264.067 208.122 265.765 198.051C268.311 183.161 268.761 180.896 270.059 177.33C271.806 172.367 272.405 169.235 272.405 165.042C272.405 155.694 268.711 147.213 261.671 140.467C252.634 131.745 239.054 127.938 226.672 130.588ZM242.898 142.635C247.342 144.081 250.138 145.816 253.583 149.333C257.427 153.285 259.225 156.706 259.973 161.573C262.22 176.126 250.387 188.895 234.71 188.895C227.571 188.895 221.38 186.486 216.437 181.715C201.758 167.596 209.896 145.045 230.966 141.479C233.362 141.045 240.102 141.72 242.898 142.635Z" fill="#343434"/>
<path d="M298.168 227.542C299.965 233.228 305.407 244.937 308.852 250.575C313.096 257.514 316.99 262.381 322.932 268.067C324.529 269.609 325.827 271.055 325.827 271.296C325.827 271.537 324.779 272.308 323.481 273.031C303.959 283.68 291.178 293.799 284.088 304.111C282.341 306.665 280.893 308.978 280.893 309.171C280.893 309.412 280.543 310.231 280.144 311.002C277.398 316.062 276.449 327.627 278.147 335.192C280.394 345.36 284.887 356.491 294.473 375.863C297.918 382.802 301.363 389.885 301.363 390.078C301.363 390.174 302.112 391.813 303.061 393.788C304.009 395.716 305.357 398.704 306.106 400.438C306.805 402.173 307.604 404.004 307.854 404.534C308.103 405.064 309.002 406.992 309.851 408.871C315.343 420.629 320.585 429.206 325.827 435.133C329.073 438.796 333.916 443.422 334.215 443.132C334.315 442.988 333.167 440.145 331.669 436.723C328.573 429.833 326.127 423.761 324.08 418.027C322.682 414.075 322.083 412.485 318.089 402.607C316.791 399.426 315.343 395.716 314.843 394.415C313.895 391.909 306.306 373.791 305.157 371.285C304.758 370.466 303.959 368.731 303.36 367.43C302.761 366.081 301.862 364.153 301.363 363.093C298.018 356.154 292.726 344.589 292.077 342.951C289.43 336.012 288.781 333.699 288.082 329.41C287.333 324.543 287.633 319.965 288.981 314.905C289.63 312.4 292.676 306.28 293.624 305.509C294.024 305.172 294.373 304.642 294.373 304.304C294.373 303.919 294.523 303.581 294.773 303.485C294.972 303.389 296.121 302.136 297.369 300.69C302.661 294.329 324.729 272.404 326.377 271.874C327.175 271.585 332.518 277.319 333.965 280.018C334.714 281.463 335.513 283.825 335.813 285.27C336.911 290.667 338.259 305.075 338.509 314.183C338.808 323.146 339.258 332.108 340.306 350.082C341.355 368.49 343.252 380.2 346.847 390.56C349.693 398.704 353.088 404.727 363.373 420.099C364.371 421.593 365.969 424.002 366.867 425.448C367.766 426.845 368.865 428.532 369.264 429.11C370.712 431.278 378.051 443.084 378.401 443.807C378.6 444.193 379.15 445.156 379.649 445.975C380.148 446.746 381.346 448.722 382.245 450.312C383.144 451.903 384.042 453.396 384.242 453.685C384.592 454.216 387.637 459.613 390.882 465.491C394.577 472.334 396.824 476.141 396.974 475.996C397.273 475.707 394.976 466.503 392.68 458.745C388.286 443.903 383.493 432.338 378.051 423.327C377.053 421.737 376.104 420.147 375.954 419.761C375.754 419.424 374.556 417.352 373.258 415.184C368.865 407.811 364.221 397.643 360.277 386.946C356.682 377.116 356.533 376.393 354.785 359.479C354.535 356.973 354.186 352.925 353.986 350.564C353.836 348.155 353.487 343.384 353.237 339.963C352.289 326.374 351.789 315.773 351.54 302.28C351.24 287.294 350.741 283.15 348.644 279.054C347.496 276.789 343.751 272.982 335.513 265.658C328.573 259.538 314.294 244.696 306.056 235.155C303.909 232.649 301.713 230.144 301.213 229.614C300.664 229.084 299.915 228.168 299.516 227.542C299.066 226.963 298.517 226.481 298.268 226.481C298.018 226.481 297.968 226.963 298.168 227.542Z" fill="#343434"/>
<path d="M303.061 303.196C293.375 314.858 292.027 321.459 296.82 334.325C300.414 344.011 311.997 367.189 313.196 367.189C314.594 367.189 319.387 364.587 321.134 362.901C324.13 360.009 325.528 356.877 325.578 352.974C325.578 349.408 325.228 348.348 318.638 332.012C317.19 328.446 315.393 323.869 314.644 321.893C310.25 309.846 306.555 300.498 306.056 300.353C305.807 300.257 304.409 301.558 303.061 303.196Z" fill="#343434"/>
</svg>
