 <svg width="292" height="317" viewBox="0 0 292 317" fill="none" xmlns="http://www.w3.org/2000/svg">
<path d="M153.685 0.128143C153.612 0.192322 151.739 0.416962 149.499 0.641602C133.745 2.08569 119.901 6.73892 106.534 15.0826C101.025 18.5164 100.585 18.8373 94.9295 23.7472C87.4014 30.2938 82.297 36.327 74.8056 47.591C72.3452 51.2814 70.3622 54.3301 70.3622 54.3943C70.3622 54.4585 69.5176 55.7421 68.5261 57.2825C67.4978 58.8229 66.6899 60.1065 66.6899 60.1707C66.6899 60.2349 66.0657 61.2618 65.2945 62.4813C63.9358 64.5672 62.2465 67.3591 57.1421 75.8954C49.5406 88.6355 40.1396 105.58 34.007 117.614C33.5663 118.48 32.9787 119.636 32.685 120.181C26.7359 131.862 22.623 142.87 23.2106 145.629L23.4676 146.753L19.8321 146.528C15.9395 146.303 12.0837 145.758 5.40019 144.538C3.04995 144.121 0.920049 143.768 0.662992 143.768C-0.365236 143.768 -0.181624 144.763 1.10366 146.047C3.60079 148.646 7.86059 150.924 12.5243 152.208C17.2248 153.524 18.1062 153.716 20.2728 153.909C21.5581 154.037 22.7699 154.294 22.9168 154.487C23.1004 154.679 23.4676 156.348 23.688 158.209C24.3122 162.638 25.3405 167.227 26.7359 171.367C27.3602 173.228 28.0212 175.25 28.2048 175.859C28.3884 176.469 28.7189 177.111 28.9025 177.271C29.0862 177.464 29.2331 177.785 29.2331 178.041C29.2331 178.266 29.8941 179.871 30.7387 181.572C31.5466 183.272 32.5013 185.262 32.8318 185.968C33.5663 187.508 41.0944 200.602 42.7102 203.137C43.3345 204.1 44.5096 206.057 45.3909 207.469C46.2355 208.881 47.227 210.389 47.5943 210.839C47.9248 211.288 48.3287 211.866 48.4389 212.122C48.5858 212.379 49.1733 213.31 49.7609 214.208C50.3485 215.075 51.1563 216.326 51.4869 216.936C51.8541 217.546 53.2863 219.696 54.645 221.685C56.0037 223.675 57.1421 225.44 57.1421 225.601C57.1421 225.793 57.2523 225.921 57.4359 225.921C57.5828 225.921 58.0602 226.595 58.5376 227.43C58.9782 228.296 59.5658 229.259 59.8228 229.612C60.9612 231.217 61.9527 232.757 63.9358 236.03C67.0939 241.165 71.4271 248.449 71.7944 249.188C71.978 249.541 73.1898 251.787 74.5118 254.162C77.3027 259.328 78.6615 262.217 79.5795 265.137C80.7546 268.827 81.7829 274.989 82.0032 279.674C82.2235 284.712 82.0399 286.028 78.8451 300.694C76.8988 309.519 75.6869 316.354 75.944 316.611C76.0542 316.675 76.8253 315.327 77.7067 313.627C78.5513 311.894 79.7264 309.583 80.314 308.46C80.9015 307.337 81.3789 306.374 81.3789 306.31C81.3789 306.246 81.8196 305.347 82.3337 304.32C82.8478 303.293 83.5088 302.01 83.7659 301.496C84.0229 300.951 84.5738 299.859 85.0144 299.025C85.4184 298.191 85.7856 297.356 85.7856 297.164C85.7856 296.971 85.9325 296.586 86.1161 296.265C86.7771 295.142 87.9522 291.452 88.6867 288.275C89.2375 285.932 89.4579 283.814 89.4579 280.541C89.4579 268.025 85.5653 256.312 76.6417 242.063C74.4751 238.63 69.591 231.281 69.1503 230.767C68.93 230.543 68.5628 230.093 68.3425 229.772C67.9018 229.034 64.3397 223.771 60.337 217.899C58.7212 215.524 56.7382 212.475 55.9303 211.16C55.1224 209.844 53.8371 207.79 53.0292 206.603C52.258 205.447 51.6337 204.388 51.6337 204.292C51.6337 204.164 51.2665 203.554 50.7891 202.88C50.3117 202.238 48.8428 199.896 47.5208 197.681C39.0012 183.561 34.668 174.383 32.5013 166.071C31.62 162.574 30.5918 155.449 30.8856 154.647C31.0324 154.262 31.7302 153.973 33.1991 153.716C47.1536 151.342 55.3427 147.844 65.9555 139.628C68.4893 137.703 69.6277 136.997 69.6277 137.446C69.6277 137.51 69.8848 140.784 70.1786 144.763C70.6927 151.534 71.4271 156.187 72.7124 161.194C74.5853 168.286 79.1021 178.362 83.2518 184.492C86.6302 189.53 93.0567 197.168 97.1696 201.019C100.364 204.035 104.734 207.662 106.167 208.496C106.974 208.977 107.709 209.427 107.819 209.523C108.333 210.068 111.234 211.577 113.401 212.443C114.796 213.021 116.008 213.631 116.155 213.823C116.816 214.69 119.056 229.74 119.644 237.314C120.231 244.599 120.231 260.74 119.68 267.48C118.615 279.546 116.045 290.938 111.785 302.106C110.573 305.315 109.435 308.428 109.288 309.038L108.957 310.161L109.765 309.294C110.977 307.979 116.229 300.245 118.028 297.164C120.782 292.414 123.683 284.905 125.115 278.872C125.336 277.909 125.666 276.529 125.85 275.823C125.997 275.117 126.327 273.16 126.548 271.491C126.768 269.822 127.135 267.287 127.392 265.875C127.98 262.377 127.943 239.817 127.355 234.747C126.217 225.087 125.813 221.974 125.262 218.444C124.932 216.358 124.748 214.433 124.858 214.208C124.968 213.951 125.887 213.695 127.172 213.566C131.175 213.213 139.694 211.031 147.112 208.496C154.824 205.865 167.126 200.152 174.727 195.724C179.318 193.06 185.487 188.696 186.001 187.829C186.295 187.284 186.221 186.706 185.707 185.422C184.973 183.529 184.202 183.144 182.99 184.107C182.549 184.46 181.448 185.166 180.53 185.711C179.611 186.225 177.885 187.252 176.674 187.958C167.566 193.317 153.685 199.896 145.643 202.655C140.172 204.517 139.694 204.645 137.748 205.159C131.248 206.859 129.338 207.116 123.977 207.148C118.652 207.148 118.615 207.148 116.155 206.089C109.912 203.393 101.282 195.563 93.4606 185.487C91.1104 182.47 87.5116 177.079 86.4099 174.897C80.6812 163.665 78.2942 153.716 77.7067 138.216C77.5231 133.467 77.4863 129.359 77.5965 129.07C77.7434 128.782 78.6247 127.594 79.5428 126.439C82.9947 122.171 87.4748 115.464 90.0454 110.714C91.3674 108.307 99.3729 91.0745 99.3729 90.6573C99.3729 90.5289 99.63 89.9834 99.9238 89.4378C100.548 88.2184 107.525 71.7556 108.811 68.3539C109.325 67.0382 109.949 65.4978 110.206 64.9844C110.426 64.4388 110.977 63.2193 111.381 62.2566C113.438 57.475 113.878 56.4481 115.053 53.9129C117.257 49.2918 117.367 49.0672 119.791 44.7669C123.389 38.4129 129.963 30.2296 133.047 28.3042C134.516 27.4056 139.107 26.9564 149.205 26.7317C157.321 26.5392 171.165 27.0205 173.442 27.5661L174.434 27.7907L174.47 38.0599C174.47 46.532 174.617 48.7783 175.131 51.0247C175.866 54.1055 177.114 58.2452 177.592 59.2079C177.775 59.561 178.326 60.7483 178.84 61.8073C180.493 65.3053 182.439 67.8084 185.818 70.7929C191.326 75.6065 195.512 77.2753 205.684 78.8157C215.489 80.2918 218.868 81.1583 219.602 82.442C220.263 83.5331 220.998 86.0362 222.173 90.9782C225.441 105.162 226.616 121.914 224.964 131.285C223.568 139.307 221.842 142.998 217.582 147.138C213.176 151.438 212.001 152.754 212.551 152.754C212.845 152.754 213.286 152.561 213.506 152.369C213.763 152.144 215.122 151.374 216.481 150.668C223.825 146.913 226.176 144.956 228.526 140.623C230.252 137.414 231.023 135.36 231.537 132.536C231.794 131.221 232.161 129.552 232.382 128.846C232.896 127.081 232.859 109.142 232.308 106.157C231.684 102.531 230.031 91.5879 229.627 88.1221C229.481 86.9347 230.472 87.2877 233.043 89.4057C239.506 94.7329 243.949 101.761 246.593 110.843C248.907 118.641 249.568 131.894 248.062 140.302C246.887 147.106 245.381 153.042 243.178 159.75C242.15 162.766 241.966 163.857 242.223 164.339C243.068 165.686 244.023 164.788 246.703 160.07C250.265 153.813 253.791 141.49 255.076 130.932C255.553 127.145 255.37 118.416 254.746 114.244C254.011 109.11 251.477 101.504 249.164 97.4927C245.198 90.561 239.579 84.0144 235.466 81.5434C234.034 80.6769 230.252 79.0403 227.424 78.0134C225.368 77.3074 217.509 75.414 212.588 74.4512C199.515 71.9482 194.264 69.5413 189.196 63.7649C183.467 57.1862 181.007 48.7783 181.411 37.1934C181.521 33.9201 181.852 30.005 182.145 28.5288C182.659 25.8973 182.88 23.8435 182.77 22.6882C182.77 22.3673 182.219 21.918 181.558 21.6934C179.391 20.9232 169.733 20.3777 158.129 20.3777C146.084 20.3777 145.46 20.2493 151.298 18.9977C153.502 18.5485 155.595 18.4522 164.482 18.4843C170.284 18.5164 175.021 18.4201 175.021 18.2596C175.021 17.4895 171.533 16.3342 165.106 15.0505C160.773 14.1841 151.188 13.8632 146.745 14.4087C139.768 15.3073 133.268 18.0671 128.053 22.3031C119.901 28.946 113.805 37.8352 106.534 53.6562C105.616 55.6458 104.698 57.5713 104.551 57.9243C104.184 58.6303 103.633 59.8498 99.4831 69.3167C97.9775 72.7504 96.3617 76.473 95.8476 77.5641C95.3702 78.6873 94.5623 80.4844 94.0849 81.5755C93.6075 82.6987 92.5793 84.9772 91.8448 86.6459C87.4014 96.7546 81.893 108.436 80.975 109.784C80.3874 110.682 79.91 111.452 79.91 111.549C79.91 112.383 71.978 122.973 68.8198 126.375C59.1986 136.644 49.0999 142.87 37.569 145.565C33.4929 146.528 32.1708 146.56 32.1708 145.694C32.1708 144.346 33.7132 139.019 34.7414 136.869C34.925 136.516 36.1001 133.916 37.3487 131.092C38.5973 128.268 39.7357 125.797 39.8826 125.637C40.0294 125.444 40.2865 124.963 40.4334 124.513C40.6905 123.775 41.8656 121.497 44.1056 117.293C45.2808 115.079 47.3005 111.26 48.5123 108.949C50.018 105.997 63.7889 81.9285 66.7267 77.0186C70.3989 70.8891 76.2378 61.4222 78.2575 58.2452C78.6982 57.5392 79.5795 56.1593 80.1671 55.1966C88.7969 41.3653 96.325 32.5723 105.616 25.5764C117.147 16.8797 129.559 11.681 145.276 8.95322C148.911 8.3114 150.637 8.21512 157.762 8.18301C166.905 8.18301 170.394 8.63229 176.857 10.6541C180.346 11.7451 190.298 15.8528 191.289 16.623C191.62 16.8797 191.913 17.5536 191.913 18.0992C191.913 20.153 193.162 20.8269 198.523 21.5009C205.06 22.3673 211.964 24.2928 217.656 26.828C229.811 32.2514 240.424 40.4988 250.376 52.18C266.387 71.0496 277.513 98.7764 279.717 125.316C280.341 132.729 279.937 145.212 278.946 151.31C276.889 163.665 272.85 173.42 265.983 182.406L263.082 186.225L263.486 188.985C263.706 190.493 264 192.803 264.11 194.087C264.257 195.371 264.514 196.494 264.697 196.59C265.175 196.847 266.827 195.242 270.683 190.814C278.174 182.117 282.875 173.677 285.592 163.986C287.245 158.049 287.832 155.032 288.861 147.78C289.926 140.078 289.412 123.711 287.796 113.602C286.768 107.248 284.968 99.6107 283.316 94.6687C282.912 93.5134 282.434 92.0051 282.214 91.2991C281.369 88.7639 277.66 79.2649 276.926 77.8208C276.669 77.2753 275.604 75.061 274.539 72.8467C270.94 65.2732 265.579 56.6728 260.621 50.3829C259.74 49.2276 258.638 47.8798 258.234 47.3342C255.994 44.5423 251.11 39.504 247.181 35.974C234.805 24.9025 221.034 17.7462 205.684 14.4408C203.224 13.9273 200.874 13.4781 200.433 13.4781C200.029 13.4781 198.891 12.9004 197.936 12.1623C192.134 7.76584 183.137 3.81863 174.617 1.92526C170.284 0.962524 161.838 -0.000213623 157.578 -0.000213623C155.522 -0.000213623 153.759 0.0639648 153.685 0.128143Z" fill="white"/>
<path d="M166.722 86.9653C154.53 89.34 146.12 97.2986 144.945 107.504C144.101 114.724 146.818 121.399 152.657 126.373C154.236 127.721 168.154 136.065 179.868 142.643C181.411 143.542 182.769 144.408 182.88 144.601C182.953 144.794 182.586 147.393 181.998 150.377C181.411 153.49 181.08 155.993 181.264 156.282C181.411 156.539 182.99 160.165 184.752 164.305C186.515 168.445 188.278 172.488 188.608 173.29C189.71 175.761 195.145 188.502 198.597 196.557C200.396 200.793 202.012 204.387 202.196 204.515C202.342 204.676 203.003 203.938 203.701 202.911C207.3 197.359 210.825 193.829 217.913 188.726C219.198 187.796 219.822 187.122 219.712 186.801C219.602 186.512 218.574 184.201 217.435 181.634C216.297 179.067 214.828 175.665 214.13 174.093C210.899 166.327 204.068 150.249 203.664 149.511C203.444 149.062 201.094 147.361 198.487 145.692C195.292 143.67 193.749 142.515 193.749 142.098C193.749 141.36 194.227 138.6 195.475 131.893C197.348 121.977 197.679 120.468 198.634 118.094C199.919 114.788 200.359 112.702 200.359 109.91C200.359 103.685 197.642 98.0367 192.464 93.544C185.817 87.7355 175.829 85.2003 166.722 86.9653ZM178.657 94.9881C181.925 95.9508 183.981 97.1061 186.515 99.4487C189.343 102.08 190.665 104.359 191.216 107.6C192.868 117.291 184.165 125.796 172.634 125.796C167.383 125.796 162.829 124.191 159.194 121.014C148.397 111.611 154.383 96.5926 169.88 94.2179C171.643 93.9291 176.6 94.3783 178.657 94.9881Z" fill="white"/>
<path d="M219.307 151.535C220.629 155.322 224.632 163.12 227.165 166.875C230.287 171.496 233.151 174.737 237.521 178.524C238.696 179.551 239.651 180.514 239.651 180.674C239.651 180.835 238.88 181.348 237.925 181.829C223.567 188.922 214.166 195.661 208.951 202.528C207.666 204.229 206.601 205.769 206.601 205.898C206.601 206.058 206.344 206.604 206.05 207.117C204.03 210.487 203.333 218.189 204.581 223.227C206.234 229.998 209.539 237.411 216.589 250.312C219.123 254.933 221.657 259.65 221.657 259.779C221.657 259.843 222.208 260.934 222.906 262.25C223.603 263.533 224.595 265.523 225.146 266.678C225.66 267.834 226.247 269.053 226.431 269.406C226.615 269.759 227.276 271.043 227.9 272.294C231.939 280.125 235.795 285.837 239.651 289.784C242.038 292.223 245.6 295.304 245.82 295.111C245.894 295.015 245.049 293.122 243.948 290.843C241.671 286.254 239.871 282.211 238.366 278.392C237.338 275.76 236.897 274.701 233.959 268.123C233.004 266.005 231.939 263.533 231.572 262.667C230.874 260.998 225.293 248.932 224.448 247.263C224.154 246.718 223.567 245.562 223.126 244.696C222.685 243.797 222.024 242.514 221.657 241.808C219.197 237.187 215.304 229.485 214.827 228.394C212.88 223.773 212.403 222.232 211.889 219.376C211.338 216.135 211.558 213.086 212.55 209.717C213.027 208.048 215.267 203.972 215.965 203.459C216.259 203.234 216.516 202.881 216.516 202.657C216.516 202.4 216.626 202.175 216.81 202.111C216.957 202.047 217.801 201.212 218.719 200.25C222.612 196.014 238.843 181.412 240.055 181.059C240.643 180.867 244.572 184.686 245.637 186.483C246.188 187.445 246.775 189.018 246.996 189.981C247.803 193.575 248.795 203.17 248.979 209.235C249.199 215.204 249.529 221.173 250.301 233.143C251.072 245.402 252.467 253.2 255.111 260.1C257.204 265.523 259.701 269.535 267.266 279.772C268.001 280.766 269.176 282.371 269.837 283.334C270.498 284.264 271.306 285.388 271.6 285.773C272.665 287.217 278.063 295.079 278.32 295.56C278.467 295.817 278.871 296.459 279.238 297.005C279.605 297.518 280.486 298.834 281.147 299.893C281.808 300.952 282.469 301.947 282.616 302.139C282.873 302.492 285.113 306.086 287.5 310.001C290.218 314.558 291.87 317.094 291.981 316.997C292.201 316.805 290.512 310.675 288.822 305.509C285.591 295.625 282.065 287.923 278.063 281.922C277.328 280.863 276.631 279.804 276.52 279.547C276.373 279.322 275.492 277.942 274.537 276.498C271.306 271.588 267.891 264.817 264.99 257.693C262.346 251.146 262.235 250.665 260.95 239.401C260.766 237.732 260.509 235.037 260.362 233.464C260.252 231.86 259.995 228.683 259.812 226.404C259.114 217.354 258.747 210.294 258.563 201.309C258.343 191.328 257.976 188.569 256.433 185.841C255.589 184.333 252.834 181.797 246.775 176.919C241.671 172.844 231.168 162.96 225.109 156.606C223.53 154.937 221.914 153.268 221.547 152.915C221.143 152.562 220.592 151.953 220.298 151.535C219.968 151.15 219.564 150.829 219.38 150.829C219.197 150.829 219.16 151.15 219.307 151.535Z" fill="white"/>
<path d="M222.909 201.92C215.785 209.686 214.794 214.083 218.319 222.651C220.963 229.101 229.483 244.537 230.364 244.537C231.392 244.537 234.918 242.804 236.203 241.681C238.406 239.756 239.434 237.67 239.471 235.07C239.471 232.695 239.214 231.989 234.367 221.111C233.302 218.736 231.98 215.687 231.429 214.371C228.197 206.349 225.48 200.123 225.113 200.027C224.929 199.963 223.901 200.829 222.909 201.92Z" fill="white"/>
</svg>
