<svg width="328" height="328" viewBox="0 0 328 328" fill="none" xmlns="http://www.w3.org/2000/svg">
<path d="M209.54 21.2413C178.341 25.0166 143.937 39.2321 109.343 62.6907C89.4035 76.1518 73.994 91.7515 60.9101 111.815C42.4175 140.056 31.0326 174.086 31.0326 201.071V206.355L27.7624 208.431C15.8101 216.103 7.0689 228.747 4.23826 242.52C2.8541 249.06 2.98202 259.314 4.55314 265.857C8.39074 282.083 18.9556 294.915 34.306 302.026C50.0927 309.386 67.8309 308.628 83.2403 300.012C86.3859 298.25 89.9709 295.42 93.9955 291.395C101.92 283.533 105.948 276.678 108.778 265.795C110.415 259.504 110.287 246.863 108.464 240.194C102.173 216.608 81.1641 200.192 57.3874 200.192H51.7884V197.613C51.7884 194.153 53.4875 182.834 54.9963 176.48C59.0831 158.68 68.3951 137.485 79.0879 121.38C91.9192 102.07 104.121 90.246 125.697 76.1551C175.198 43.8241 221.053 33.3216 257.156 46.0906C277.157 53.1983 294.958 67.6664 301.436 82.0689C306.028 92.2599 305.713 104.147 300.616 115.971C298.353 121.193 295.332 126.601 292.944 129.557L291.56 131.318L288.667 128.612C281.936 122.383 275.206 119.681 266.651 119.681C260.928 119.681 256.526 120.75 250.989 123.518C240.421 128.865 143.996 197.299 138.715 203.212C135.822 206.42 133.116 212.019 131.922 216.988C130.666 222.397 131.043 232.021 132.801 238.187C133.683 241.27 133.933 242.966 133.493 244.035C132.109 247.748 133.116 251.711 137.393 258.753C141.168 265.044 142.549 266.615 145.508 268.124C150.854 270.892 156.768 270.2 161.17 266.425C165.572 262.715 167.395 257.683 166.201 252.524C165.07 247.302 158.024 237.052 154.249 235.101C151.231 233.464 150.287 223.214 152.74 218.494C154 215.978 200.92 181.637 232.621 159.998C246.46 150.5 258.852 142.198 260.17 141.506C263.253 139.935 267.402 139.43 270.299 140.437C272.814 141.253 278.099 146.035 281.178 150.313C282.185 151.759 285.141 154.59 287.719 156.604C295.204 162.58 297.847 167.421 296.398 172.643C295.515 176.166 295.391 176.356 279.476 199.565C272.053 210.383 256.077 234.159 243.937 252.337C227.396 277.183 221.482 285.675 220.036 286.367C218.714 286.997 216.198 287.312 211.672 287.312C205.886 287.312 205.069 287.187 204.502 286.118C202.301 282.218 192.802 275.93 186.577 274.231C180.791 272.722 173.244 276.432 170.6 282.221C169.091 285.554 169.091 290.962 170.6 294.236C172.171 297.696 175.064 300.15 181.48 303.607C187.518 306.815 191.733 307.759 195.256 306.562C196.955 306.06 198.401 306.06 201.796 306.815C207.582 308.008 217.835 308.008 222.552 306.815C227.081 305.621 231.483 303.416 234.944 300.714C236.767 299.205 243.685 289.267 258.973 266.244C270.797 248.444 287.404 223.788 295.83 211.521C304.194 199.257 312.06 187.242 313.254 184.913C316.471 178.553 317.603 172.2 316.724 165.909C315.842 159.998 312.886 153.455 309.049 149.115C307.664 147.544 306.533 146.098 306.533 145.97C306.533 145.783 308.419 142.887 310.685 139.492C315.969 131.63 318.675 126.159 321.316 118.231C324.337 109.109 324.963 104.583 324.648 94.5821C324.333 87.599 324.019 85.0832 322.572 80.6815C318.42 67.7255 310.056 55.9634 298.103 46.3399C272.631 25.8333 242.376 17.2791 209.54 21.2413ZM200.231 169.999C201.993 172.453 203.249 174.716 203.062 175.031C202.872 175.346 191.615 183.775 178.029 193.71C164.506 203.649 152.491 212.58 151.359 213.587C148.342 216.227 147.145 220.505 147.584 227.173C148.086 234.468 149.031 237.174 151.422 238.181C154.062 239.312 155.574 241.073 159.346 247.365C162.364 252.334 162.554 252.963 162.301 256.043C162.049 259.756 160.73 261.957 157.395 264.22C155.633 265.477 154.626 265.667 151.733 265.477C146.954 265.162 144.94 263.528 140.788 256.545C137.895 251.704 137.328 250.257 137.328 247.738C137.328 246.102 137.58 244.278 137.895 243.652C138.335 242.897 138.148 241.388 137.265 238.935C133.05 226.104 135.189 212.265 142.549 205.22C145.757 202.202 195.197 165.719 196.266 165.656C196.646 165.594 198.408 167.608 200.231 169.999ZM67.0732 225.917C87.2026 233.716 92.4834 259.819 77.0116 274.602C61.0971 289.762 35.5623 283.408 28.5791 262.587C26.0634 255.227 27.2573 244.911 31.2195 238.308C34.9948 232.208 41.9123 226.986 48.7052 225.038C53.5498 223.716 62.3566 224.093 67.0732 225.917ZM268.039 237.174C269.8 238.367 271.309 239.565 271.309 239.88C271.309 240.949 235.203 294.728 233.067 296.804C227.908 301.835 219.797 304.289 210.298 303.721C207.028 303.535 202.688 302.967 200.674 302.4C197.968 301.645 196.774 301.583 195.767 302.147C193.061 303.594 189.227 302.964 183.815 300.136C177.212 296.676 175.385 295.167 174.129 291.707C172.305 286.99 174.382 281.454 178.846 279.128C182.431 277.242 186.144 277.869 192.684 281.519C197.968 284.474 200.733 286.928 201.616 289.509C201.74 289.886 203.944 290.579 206.522 291.143C214.447 292.779 222.06 291.267 225.392 287.243C226.271 286.236 234.763 273.595 244.262 259.189L261.561 233.024L263.132 233.969C264.014 234.533 266.215 235.98 268.039 237.174Z" fill="#343434"/>
</svg>
